/vscmnt/brussel_pixiu_data/_data_brussel/112/vsc11236/PredSimResults/SUBJ10mtu3D/weighted-LRposFixed/trackIG/worker_03.mot
version=1
nRows=4
nColumns=50
inDegrees=yes
endheader
                time	         pelvis_tilt	         pelvis_list	     pelvis_rotation	           pelvis_tx	           pelvis_ty	           pelvis_tz	       hip_flexion_r	     hip_adduction_r	      hip_rotation_r	        knee_angle_r	       ankle_angle_r	         mtp_angle_r	       hip_flexion_l	     hip_adduction_l	      hip_rotation_l	        knee_angle_l	       ankle_angle_l	         mtp_angle_l	    lumbar_extension	      lumbar_bending	     lumbar_rotation	 ercspn_r/activation	 intobl_r/activation	 extobl_r/activation	    abd_r/activation	    add_r/activation	hamstrings_r/activation	bifemsh_r/activation	glut_max_r/activation	iliopsoas_r/activation	rect_fem_r/activation	  vasti_r/activation	gastroc_r/activation	 soleus_r/activation	tib_ant_r/activation	 ercspn_l/activation	 intobl_l/activation	 extobl_l/activation	    abd_l/activation	    add_l/activation	hamstrings_l/activation	bifemsh_l/activation	glut_max_l/activation	iliopsoas_l/activation	rect_fem_l/activation	  vasti_l/activation	gastroc_l/activation	 soleus_l/activation	tib_ant_l/activation	
          1.15867085	         -4.63106952	         -3.00822488	         10.82875147	          1.29771135	          0.82697824	         -0.01590143	         28.73535405	         -1.20746035	         -9.06395240	         -3.49025084	          6.97900971	          0.25198138	        -13.30802942	         -3.37524642	          6.15108704	         -6.88917251	         10.07145663	         24.37329677	         -7.16183919	          1.02274238	         -3.90930644	          0.09017801	          0.17023683	          0.02290996	          0.01193111	          0.11398425	          0.03692994	          0.14765100	          0.00999999	          0.08075167	          0.01193111	          0.00999999	          0.01468481	          0.00999999	          0.26280672	          0.02663397	          0.00999999	          0.00999999	          0.04147891	          0.02984159	          0.02651474	          0.13701124	          0.03441657	          0.33176098	          0.00999999	          0.00999999	          0.27055120	          0.24537600	          0.01816075	
          1.17025756	         -4.70117845	         -2.82253554	         10.67464488	          1.31305388	          0.82526060	         -0.01553866	         28.91309831	         -1.01595181	         -8.06013229	         -5.26598609	          6.69115793	          0.25269452	        -13.43480495	         -3.18630916	          5.50707241	         -8.59749715	          9.57006296	         26.04870648	         -6.95172106	          1.39872322	         -4.07860087	          0.07558220	          0.14268305	          0.01920186	          0.00999999	          0.19096060	          0.03211031	          0.12375286	          0.05840949	          0.06768156	          0.00999999	          0.00999999	          0.01947689	          0.01423514	          0.26502660	          0.07521972	          0.00999999	          0.00999999	          0.03476532	          0.07828319	          0.02222318	          0.11483521	          0.02884606	          0.35147139	          0.00999999	          0.00999999	          0.22676098	          0.23263977	          0.01522133	
          1.18184427	         -4.75498271	         -2.64643448	         10.45982196	          1.32874894	          0.82367780	         -0.01514453	         28.89474117	         -0.84612843	         -7.01980793	         -7.00373523	          6.40700746	          0.23963139	        -13.41964583	         -2.99126781	          4.80643150	        -10.63542064	          8.97071367	         27.69069660	         -6.71825610	          1.80499177	         -4.22386036	          0.06334880	          0.12769005	          0.01609393	          0.04228328	          0.16511110	          0.04395353	          0.10372277	          0.07046736	          0.05672692	          0.00999999	          0.00999999	          0.01632445	          0.01193111	          0.29768822	          0.09208975	          0.00999999	          0.00999999	          0.02913836	          0.07754574	          0.01971677	          0.09624849	          0.02417716	          0.33913225	          0.00999999	          0.00999999	          0.19005845	          0.21701776	          0.01275767	
          1.19343097	         -4.79492688	         -2.47645178	         10.18245916	          1.34458563	          0.82238671	         -0.01464676	         28.70204286	         -0.65770292	         -6.05128418	         -8.45491335	          6.03961150	          0.23025657	        -13.18989527	         -2.79189997	          4.05258493	        -13.08521378	          8.22437238	         29.24518109	         -6.48476895	          2.22478381	         -4.34487344	          0.07974481	          0.10702271	          0.01348904	          0.09539949	          0.17169140	          0.04521880	          0.08693466	          0.08424304	          0.04754535	          0.00999999	          0.00999999	          0.01368224	          0.00999999	          0.31785107	          0.11463015	          0.00999999	          0.00999999	          0.02442215	          0.08178773	          0.01789955	          0.08067013	          0.02026395	          0.32863243	          0.00999999	          0.00999999	          0.15929643	          0.18701052	          0.01069277	
